<mxfile host="app.diagrams.net" modified="2024-02-28T23:03:48.784Z" agent="Mozilla/5.0 (X11; Linux x86_64) AppleWebKit/537.36 (KHTML, like Gecko) Chrome/122.0.0.0 Safari/537.36" etag="xXtx0QOM-Ue9D9sEVKmI" version="23.1.5" type="device">
  <diagram name="Page-1" id="tPWKcsjgFQRirsuQ69KP">
    <mxGraphModel dx="1728" dy="655" grid="1" gridSize="10" guides="1" tooltips="1" connect="1" arrows="1" fold="1" page="1" pageScale="1" pageWidth="827" pageHeight="583" math="0" shadow="0">
      <root>
        <mxCell id="0" />
        <mxCell id="1" parent="0" />
        <mxCell id="frPTW5mSLaDxLgveOJJY-1" value="Country" style="swimlane;fontStyle=0;childLayout=stackLayout;horizontal=1;startSize=26;fillColor=none;horizontalStack=0;resizeParent=1;resizeParentMax=0;resizeLast=0;collapsible=1;marginBottom=0;whiteSpace=wrap;html=1;" vertex="1" parent="1">
          <mxGeometry x="68" y="224" width="180" height="104" as="geometry" />
        </mxCell>
        <mxCell id="frPTW5mSLaDxLgveOJJY-2" value="+ Id: string" style="text;strokeColor=none;fillColor=none;align=left;verticalAlign=top;spacingLeft=4;spacingRight=4;overflow=hidden;rotatable=0;points=[[0,0.5],[1,0.5]];portConstraint=eastwest;whiteSpace=wrap;html=1;" vertex="1" parent="frPTW5mSLaDxLgveOJJY-1">
          <mxGeometry y="26" width="180" height="26" as="geometry" />
        </mxCell>
        <mxCell id="frPTW5mSLaDxLgveOJJY-3" value="+ Name: String" style="text;strokeColor=none;fillColor=none;align=left;verticalAlign=top;spacingLeft=4;spacingRight=4;overflow=hidden;rotatable=0;points=[[0,0.5],[1,0.5]];portConstraint=eastwest;whiteSpace=wrap;html=1;" vertex="1" parent="frPTW5mSLaDxLgveOJJY-1">
          <mxGeometry y="52" width="180" height="26" as="geometry" />
        </mxCell>
        <mxCell id="frPTW5mSLaDxLgveOJJY-4" value="+ GeoCoordnates: String&amp;nbsp;" style="text;strokeColor=none;fillColor=none;align=left;verticalAlign=top;spacingLeft=4;spacingRight=4;overflow=hidden;rotatable=0;points=[[0,0.5],[1,0.5]];portConstraint=eastwest;whiteSpace=wrap;html=1;" vertex="1" parent="frPTW5mSLaDxLgveOJJY-1">
          <mxGeometry y="78" width="180" height="26" as="geometry" />
        </mxCell>
        <mxCell id="frPTW5mSLaDxLgveOJJY-5" value="RecipeGroup" style="swimlane;fontStyle=0;childLayout=stackLayout;horizontal=1;startSize=26;fillColor=none;horizontalStack=0;resizeParent=1;resizeParentMax=0;resizeLast=0;collapsible=1;marginBottom=0;whiteSpace=wrap;html=1;" vertex="1" parent="1">
          <mxGeometry x="338" y="384" width="180" height="78" as="geometry" />
        </mxCell>
        <mxCell id="frPTW5mSLaDxLgveOJJY-6" value="+ Id: Guid" style="text;strokeColor=none;fillColor=none;align=left;verticalAlign=top;spacingLeft=4;spacingRight=4;overflow=hidden;rotatable=0;points=[[0,0.5],[1,0.5]];portConstraint=eastwest;whiteSpace=wrap;html=1;" vertex="1" parent="frPTW5mSLaDxLgveOJJY-5">
          <mxGeometry y="26" width="180" height="26" as="geometry" />
        </mxCell>
        <mxCell id="frPTW5mSLaDxLgveOJJY-7" value="+ Name: String" style="text;strokeColor=none;fillColor=none;align=left;verticalAlign=top;spacingLeft=4;spacingRight=4;overflow=hidden;rotatable=0;points=[[0,0.5],[1,0.5]];portConstraint=eastwest;whiteSpace=wrap;html=1;" vertex="1" parent="frPTW5mSLaDxLgveOJJY-5">
          <mxGeometry y="52" width="180" height="26" as="geometry" />
        </mxCell>
        <mxCell id="frPTW5mSLaDxLgveOJJY-9" value="Recipe" style="swimlane;fontStyle=0;childLayout=stackLayout;horizontal=1;startSize=26;fillColor=none;horizontalStack=0;resizeParent=1;resizeParentMax=0;resizeLast=0;collapsible=1;marginBottom=0;whiteSpace=wrap;html=1;" vertex="1" parent="1">
          <mxGeometry x="329" y="104" width="180" height="130" as="geometry" />
        </mxCell>
        <mxCell id="frPTW5mSLaDxLgveOJJY-10" value="+ Id: Guid" style="text;strokeColor=none;fillColor=none;align=left;verticalAlign=top;spacingLeft=4;spacingRight=4;overflow=hidden;rotatable=0;points=[[0,0.5],[1,0.5]];portConstraint=eastwest;whiteSpace=wrap;html=1;" vertex="1" parent="frPTW5mSLaDxLgveOJJY-9">
          <mxGeometry y="26" width="180" height="26" as="geometry" />
        </mxCell>
        <mxCell id="frPTW5mSLaDxLgveOJJY-11" value="+ Title: String" style="text;strokeColor=none;fillColor=none;align=left;verticalAlign=top;spacingLeft=4;spacingRight=4;overflow=hidden;rotatable=0;points=[[0,0.5],[1,0.5]];portConstraint=eastwest;whiteSpace=wrap;html=1;" vertex="1" parent="frPTW5mSLaDxLgveOJJY-9">
          <mxGeometry y="52" width="180" height="26" as="geometry" />
        </mxCell>
        <mxCell id="frPTW5mSLaDxLgveOJJY-37" value="+ ImageBase64: String&amp;nbsp;" style="text;strokeColor=none;fillColor=none;align=left;verticalAlign=top;spacingLeft=4;spacingRight=4;overflow=hidden;rotatable=0;points=[[0,0.5],[1,0.5]];portConstraint=eastwest;whiteSpace=wrap;html=1;" vertex="1" parent="frPTW5mSLaDxLgveOJJY-9">
          <mxGeometry y="78" width="180" height="26" as="geometry" />
        </mxCell>
        <mxCell id="frPTW5mSLaDxLgveOJJY-35" value="+ Description" style="text;strokeColor=none;fillColor=none;align=left;verticalAlign=top;spacingLeft=4;spacingRight=4;overflow=hidden;rotatable=0;points=[[0,0.5],[1,0.5]];portConstraint=eastwest;whiteSpace=wrap;html=1;" vertex="1" parent="frPTW5mSLaDxLgveOJJY-9">
          <mxGeometry y="104" width="180" height="26" as="geometry" />
        </mxCell>
        <mxCell id="frPTW5mSLaDxLgveOJJY-12" value="Ingredient" style="swimlane;fontStyle=0;childLayout=stackLayout;horizontal=1;startSize=26;fillColor=none;horizontalStack=0;resizeParent=1;resizeParentMax=0;resizeLast=0;collapsible=1;marginBottom=0;whiteSpace=wrap;html=1;" vertex="1" parent="1">
          <mxGeometry x="578" y="384" width="180" height="78" as="geometry" />
        </mxCell>
        <mxCell id="frPTW5mSLaDxLgveOJJY-13" value="+ Id: Guid" style="text;strokeColor=none;fillColor=none;align=left;verticalAlign=top;spacingLeft=4;spacingRight=4;overflow=hidden;rotatable=0;points=[[0,0.5],[1,0.5]];portConstraint=eastwest;whiteSpace=wrap;html=1;" vertex="1" parent="frPTW5mSLaDxLgveOJJY-12">
          <mxGeometry y="26" width="180" height="26" as="geometry" />
        </mxCell>
        <mxCell id="frPTW5mSLaDxLgveOJJY-14" value="+ Name: String" style="text;strokeColor=none;fillColor=none;align=left;verticalAlign=top;spacingLeft=4;spacingRight=4;overflow=hidden;rotatable=0;points=[[0,0.5],[1,0.5]];portConstraint=eastwest;whiteSpace=wrap;html=1;" vertex="1" parent="frPTW5mSLaDxLgveOJJY-12">
          <mxGeometry y="52" width="180" height="26" as="geometry" />
        </mxCell>
        <mxCell id="frPTW5mSLaDxLgveOJJY-15" value="RecipeIngredient" style="swimlane;fontStyle=0;childLayout=stackLayout;horizontal=1;startSize=26;fillColor=none;horizontalStack=0;resizeParent=1;resizeParentMax=0;resizeLast=0;collapsible=1;marginBottom=0;whiteSpace=wrap;html=1;" vertex="1" parent="1">
          <mxGeometry x="580" y="218" width="180" height="104" as="geometry" />
        </mxCell>
        <mxCell id="frPTW5mSLaDxLgveOJJY-16" value="+ Id: Guid" style="text;strokeColor=none;fillColor=none;align=left;verticalAlign=top;spacingLeft=4;spacingRight=4;overflow=hidden;rotatable=0;points=[[0,0.5],[1,0.5]];portConstraint=eastwest;whiteSpace=wrap;html=1;" vertex="1" parent="frPTW5mSLaDxLgveOJJY-15">
          <mxGeometry y="26" width="180" height="26" as="geometry" />
        </mxCell>
        <mxCell id="frPTW5mSLaDxLgveOJJY-17" value="+ Quantity: Double" style="text;strokeColor=none;fillColor=none;align=left;verticalAlign=top;spacingLeft=4;spacingRight=4;overflow=hidden;rotatable=0;points=[[0,0.5],[1,0.5]];portConstraint=eastwest;whiteSpace=wrap;html=1;" vertex="1" parent="frPTW5mSLaDxLgveOJJY-15">
          <mxGeometry y="52" width="180" height="26" as="geometry" />
        </mxCell>
        <mxCell id="frPTW5mSLaDxLgveOJJY-18" value="+ Unit: String" style="text;strokeColor=none;fillColor=none;align=left;verticalAlign=top;spacingLeft=4;spacingRight=4;overflow=hidden;rotatable=0;points=[[0,0.5],[1,0.5]];portConstraint=eastwest;whiteSpace=wrap;html=1;" vertex="1" parent="frPTW5mSLaDxLgveOJJY-15">
          <mxGeometry y="78" width="180" height="26" as="geometry" />
        </mxCell>
        <mxCell id="frPTW5mSLaDxLgveOJJY-19" style="edgeStyle=orthogonalEdgeStyle;rounded=0;orthogonalLoop=1;jettySize=auto;html=1;entryX=0.451;entryY=0.008;entryDx=0;entryDy=0;entryPerimeter=0;" edge="1" parent="1" source="frPTW5mSLaDxLgveOJJY-9" target="frPTW5mSLaDxLgveOJJY-1">
          <mxGeometry relative="1" as="geometry" />
        </mxCell>
        <mxCell id="frPTW5mSLaDxLgveOJJY-20" value="1" style="text;html=1;align=center;verticalAlign=middle;resizable=0;points=[];autosize=1;strokeColor=none;fillColor=none;" vertex="1" parent="1">
          <mxGeometry x="118" y="194" width="30" height="30" as="geometry" />
        </mxCell>
        <mxCell id="frPTW5mSLaDxLgveOJJY-21" value="*" style="text;html=1;align=center;verticalAlign=middle;resizable=0;points=[];autosize=1;strokeColor=none;fillColor=none;" vertex="1" parent="1">
          <mxGeometry x="299" y="137" width="30" height="30" as="geometry" />
        </mxCell>
        <mxCell id="frPTW5mSLaDxLgveOJJY-22" value="" style="endArrow=diamondThin;endFill=0;endSize=24;html=1;rounded=0;exitX=0.423;exitY=-0.021;exitDx=0;exitDy=0;exitPerimeter=0;entryX=0.482;entryY=1.032;entryDx=0;entryDy=0;entryPerimeter=0;" edge="1" parent="1" source="frPTW5mSLaDxLgveOJJY-5" target="frPTW5mSLaDxLgveOJJY-35">
          <mxGeometry width="160" relative="1" as="geometry">
            <mxPoint x="338" y="294" as="sourcePoint" />
            <mxPoint x="414" y="214" as="targetPoint" />
          </mxGeometry>
        </mxCell>
        <mxCell id="frPTW5mSLaDxLgveOJJY-23" value="*" style="text;html=1;align=center;verticalAlign=middle;resizable=0;points=[];autosize=1;strokeColor=none;fillColor=none;" vertex="1" parent="1">
          <mxGeometry x="380" y="234" width="30" height="30" as="geometry" />
        </mxCell>
        <mxCell id="frPTW5mSLaDxLgveOJJY-24" value="+ Country" style="text;html=1;align=center;verticalAlign=middle;resizable=0;points=[];autosize=1;strokeColor=none;fillColor=none;" vertex="1" parent="1">
          <mxGeometry x="144" y="195" width="80" height="30" as="geometry" />
        </mxCell>
        <mxCell id="frPTW5mSLaDxLgveOJJY-25" value="1..*" style="text;html=1;align=center;verticalAlign=middle;resizable=0;points=[];autosize=1;strokeColor=none;fillColor=none;" vertex="1" parent="1">
          <mxGeometry x="378" y="355" width="40" height="30" as="geometry" />
        </mxCell>
        <mxCell id="frPTW5mSLaDxLgveOJJY-26" value="+ Group" style="text;html=1;align=center;verticalAlign=middle;resizable=0;points=[];autosize=1;strokeColor=none;fillColor=none;" vertex="1" parent="1">
          <mxGeometry x="410" y="354" width="70" height="30" as="geometry" />
        </mxCell>
        <mxCell id="frPTW5mSLaDxLgveOJJY-27" value="" style="endArrow=diamondThin;endFill=1;endSize=24;html=1;rounded=0;exitX=-0.007;exitY=0.141;exitDx=0;exitDy=0;exitPerimeter=0;" edge="1" parent="1" source="frPTW5mSLaDxLgveOJJY-17">
          <mxGeometry width="160" relative="1" as="geometry">
            <mxPoint x="468" y="274" as="sourcePoint" />
            <mxPoint x="468" y="234" as="targetPoint" />
            <Array as="points">
              <mxPoint x="468" y="274" />
            </Array>
          </mxGeometry>
        </mxCell>
        <mxCell id="frPTW5mSLaDxLgveOJJY-28" value="+ Ingredients" style="text;html=1;align=center;verticalAlign=middle;resizable=0;points=[];autosize=1;strokeColor=none;fillColor=none;" vertex="1" parent="1">
          <mxGeometry x="494" y="245" width="90" height="30" as="geometry" />
        </mxCell>
        <mxCell id="frPTW5mSLaDxLgveOJJY-29" value="1..*" style="text;html=1;align=center;verticalAlign=middle;resizable=0;points=[];autosize=1;strokeColor=none;fillColor=none;" vertex="1" parent="1">
          <mxGeometry x="544" y="275" width="40" height="30" as="geometry" />
        </mxCell>
        <mxCell id="frPTW5mSLaDxLgveOJJY-31" style="edgeStyle=orthogonalEdgeStyle;rounded=0;orthogonalLoop=1;jettySize=auto;html=1;entryX=0.534;entryY=0.032;entryDx=0;entryDy=0;entryPerimeter=0;" edge="1" parent="1" source="frPTW5mSLaDxLgveOJJY-15" target="frPTW5mSLaDxLgveOJJY-12">
          <mxGeometry relative="1" as="geometry">
            <Array as="points">
              <mxPoint x="674" y="344" />
              <mxPoint x="674" y="344" />
            </Array>
          </mxGeometry>
        </mxCell>
        <mxCell id="frPTW5mSLaDxLgveOJJY-32" value="1" style="text;html=1;align=center;verticalAlign=middle;resizable=0;points=[];autosize=1;strokeColor=none;fillColor=none;" vertex="1" parent="1">
          <mxGeometry x="638" y="355" width="30" height="30" as="geometry" />
        </mxCell>
        <mxCell id="frPTW5mSLaDxLgveOJJY-33" value="+ Ingredient" style="text;html=1;align=center;verticalAlign=middle;resizable=0;points=[];autosize=1;strokeColor=none;fillColor=none;" vertex="1" parent="1">
          <mxGeometry x="668" y="354" width="90" height="30" as="geometry" />
        </mxCell>
        <mxCell id="frPTW5mSLaDxLgveOJJY-34" value="&lt;div style=&quot;&quot;&gt;&lt;span style=&quot;background-color: initial;&quot;&gt;Project: Recipe API Yape&lt;/span&gt;&lt;/div&gt;Author: Lucas Esteves - 28/02/2024" style="shape=umlFrame;whiteSpace=wrap;html=1;pointerEvents=0;width=260;height=34;align=left;" vertex="1" parent="1">
          <mxGeometry x="18" y="50" width="790" height="464" as="geometry" />
        </mxCell>
      </root>
    </mxGraphModel>
  </diagram>
</mxfile>
